<svg width="32" height="27" viewBox="0 0 32 27" fill="none" xmlns="http://www.w3.org/2000/svg">
<path d="M6.84757 0.883789H3.79688V3.93448H6.84757V0.883789Z" fill="#231F20"/>
<path d="M3.79679 0.883789H0.746094V3.93448H3.79679V0.883789Z" fill="#231F20"/>
<path d="M9.89835 3.93457H6.84766V6.98526H9.89835V3.93457Z" fill="#231F20"/>
<path d="M9.89835 6.98511H6.84766V10.0358H9.89835V6.98511Z" fill="#231F20"/>
<path d="M9.89835 10.0359H6.84766V13.0866H9.89835V10.0359Z" fill="#231F20"/>
<path d="M9.89835 13.0867H6.84766V16.1374H9.89835V13.0867Z" fill="#231F20"/>
<path d="M31.2538 10.0359H28.2031V13.0866H31.2538V10.0359Z" fill="#231F20"/>
<path d="M31.2538 13.0867H28.2031V16.1374H31.2538V13.0867Z" fill="#231F20"/>
<path d="M12.9491 16.1372H9.89844V19.1879H12.9491V16.1372Z" fill="#231F20"/>
<path d="M9.89835 23.7639H6.84766V26.8146H9.89835V23.7639Z" fill="#231F20"/>
<path d="M31.2538 23.7639H28.2031V26.8146H31.2538V23.7639Z" fill="#231F20"/>
<path d="M28.203 16.1372H25.1523V19.1879H28.203V16.1372Z" fill="#231F20"/>
<path d="M15.9999 19.188H12.9492V22.2387H15.9999V19.188Z" fill="#231F20"/>
<path d="M12.9491 19.188H9.89844V22.2387H12.9491V19.188Z" fill="#231F20"/>
<path d="M19.0507 19.188H16V22.2387H19.0507V19.188Z" fill="#231F20"/>
<path d="M22.1015 19.188H19.0508V22.2387H22.1015V19.188Z" fill="#231F20"/>
<path d="M25.1523 19.188H22.1016V22.2387H25.1523V19.188Z" fill="#231F20"/>
<path d="M28.203 19.188H25.1523V22.2387H28.203V19.188Z" fill="#231F20"/>
<path d="M12.9491 6.98511H9.89844V10.0358H12.9491V6.98511Z" fill="#231F20"/>
<path d="M19.0507 6.98511H16V10.0358H19.0507V6.98511Z" fill="#231F20"/>
<path d="M15.9999 6.98511H12.9492V10.0358H15.9999V6.98511Z" fill="#231F20"/>
<path d="M22.1015 6.98511H19.0508V10.0358H22.1015V6.98511Z" fill="#231F20"/>
<path d="M25.1523 6.98511H22.1016V10.0358H25.1523V6.98511Z" fill="#231F20"/>
<path d="M28.203 6.98511H25.1523V10.0358H28.203V6.98511Z" fill="#231F20"/>
<path d="M31.2538 6.98511H28.2031V10.0358H31.2538V6.98511Z" fill="#231F20"/>
</svg>
