<svg width="1920" height="360" viewBox="0 0 1920 360" fill="none" xmlns="http://www.w3.org/2000/svg">
<rect y="300" width="60" height="60" fill="white"/>
<rect x="60" y="300" width="60" height="60" fill="white"/>
<rect x="120" y="300" width="60" height="60" fill="white"/>
<rect x="180" y="300" width="60" height="60" fill="white"/>
<rect x="240" y="300" width="60" height="60" fill="white"/>
<rect x="300" y="300" width="60" height="60" fill="white"/>
<rect x="360" y="300" width="60" height="60" fill="white"/>
<rect x="420" y="300" width="60" height="60" fill="white"/>
<rect x="480" y="300" width="60" height="60" fill="white"/>
<rect x="540" y="300" width="60" height="60" fill="white"/>
<rect x="600" y="300" width="60" height="60" fill="white"/>
<rect x="660" y="300" width="60" height="60" fill="white"/>
<rect x="720" y="300" width="60" height="60" fill="white"/>
<rect x="780" y="300" width="60" height="60" fill="white"/>
<rect x="840" y="300" width="60" height="60" fill="white"/>
<rect x="900" y="300" width="60" height="60" fill="white"/>
<rect x="960" y="300" width="60" height="60" fill="white"/>
<rect x="1020" y="300" width="60" height="60" fill="white"/>
<rect x="1080" y="300" width="60" height="60" fill="white"/>
<rect x="1140" y="300" width="60" height="60" fill="white"/>
<rect x="1200" y="300" width="60" height="60" fill="white"/>
<rect x="1260" y="300" width="60" height="60" fill="white"/>
<rect x="1320" y="300" width="60" height="60" fill="white"/>
<rect x="1380" y="300" width="60" height="60" fill="white"/>
<rect x="1440" y="300" width="60" height="60" fill="white"/>
<rect x="1500" y="300" width="60" height="60" fill="white"/>
<rect x="1560" y="300" width="60" height="60" fill="white"/>
<rect x="1620" y="300" width="60" height="60" fill="white"/>
<rect x="1680" y="300" width="60" height="60" fill="white"/>
<rect x="1740" y="300" width="60" height="60" fill="white"/>
<rect x="1800" y="300" width="60" height="60" fill="white"/>
<rect x="1860" y="300" width="60" height="60" fill="white"/>
<rect x="60" y="240" width="60" height="60" fill="white"/>
<rect x="60" y="180" width="60" height="60" fill="white"/>
<rect x="120" y="240" width="60" height="60" fill="white"/>
<rect x="120" y="180" width="60" height="60" fill="white"/>
<rect x="120" y="120" width="60" height="60" fill="white"/>
<rect x="180" y="240" width="60" height="60" fill="white"/>
<rect x="180" y="180" width="60" height="60" fill="white"/>
<rect x="180" y="60" width="60" height="60" fill="white"/>
<rect x="240" y="240" width="60" height="60" fill="white"/>
<rect x="240" y="120" width="60" height="60" fill="white"/>
<rect x="300" y="240" width="60" height="60" fill="white"/>
<rect x="360" y="240" width="60" height="60" fill="white"/>
<rect x="420" y="240" width="60" height="60" fill="white"/>
<rect x="300" y="180" width="60" height="60" fill="white"/>
<rect x="240" y="180" width="60" height="60" fill="white"/>
<rect x="300" y="120" width="60" height="60" fill="white"/>
<rect x="360" y="180" width="60" height="60" fill="white"/>
<rect x="420" y="180" width="60" height="60" fill="white"/>
<rect x="420" y="120" width="60" height="60" fill="white"/>
<rect x="480" y="240" width="60" height="60" fill="white"/>
<rect x="480" y="180" width="60" height="60" fill="white"/>
<rect x="480" width="60" height="60" fill="white"/>
<rect x="540" y="240" width="60" height="60" fill="white"/>
<rect x="540" y="180" width="60" height="60" fill="white"/>
<rect x="540" y="60" width="60" height="60" fill="white"/>
<rect x="600" y="240" width="60" height="60" fill="white"/>
<rect x="600" y="180" width="60" height="60" fill="white"/>
<rect x="600" y="120" width="60" height="60" fill="white"/>
<rect x="660" y="240" width="60" height="60" fill="white"/>
<rect x="660" y="180" width="60" height="60" fill="white"/>
<rect x="660" y="120" width="60" height="60" fill="white"/>
<rect x="660" y="60" width="60" height="60" fill="white"/>
<rect x="660" width="60" height="60" fill="white"/>
<rect x="720" y="180" width="60" height="60" fill="white"/>
<rect x="777.238" y="240" width="68.2845" height="60.251" fill="white"/>
<rect x="719.875" y="240" width="60" height="60" fill="white"/>
<rect x="780" y="180" width="60" height="60" fill="white"/>
<rect x="780" y="120" width="60" height="60" fill="white"/>
<rect x="780" y="60" width="60" height="60" fill="white"/>
<rect x="840" y="240" width="60" height="60" fill="white"/>
<rect x="840" y="120" width="60" height="60" fill="white"/>
<rect x="900" y="240" width="60" height="60" fill="white"/>
<rect x="900" y="180" width="60" height="60" fill="white"/>
<rect x="840" y="180" width="64.2678" height="60.251" fill="white"/>
<rect x="960" y="240" width="60" height="60" fill="white"/>
<rect x="960" y="180" width="60" height="60" fill="white"/>
<rect x="960" y="120" width="60" height="60" fill="white"/>
<rect x="960" y="60" width="60" height="60" fill="white"/>
<rect x="1080.06" y="240" width="60" height="60" fill="white"/>
<rect x="1020" y="180" width="60" height="60" fill="white"/>
<rect x="1080" y="180" width="60" height="60" fill="white"/>
<rect x="1080" y="120" width="60" height="60" fill="white"/>
<rect x="1140" y="240" width="60" height="60" fill="white"/>
<rect x="1200" y="240" width="60" height="60" fill="white"/>
<rect x="1200" y="120" width="60" height="60" fill="white"/>
<rect x="1260" y="240" width="60" height="60" fill="white"/>
<rect x="1260" y="180" width="60" height="60" fill="white"/>
<rect x="1320" y="240" width="60" height="60" fill="white"/>
<rect x="1380" y="240" width="60" height="60" fill="white"/>
<rect x="1380" y="180" width="60" height="60" fill="white"/>
<rect x="1380" y="120" width="60" height="60" fill="white"/>
<rect x="1380" y="60" width="60" height="60" fill="white"/>
<rect x="1440" y="180" width="60" height="60" fill="white"/>
<rect x="1500" y="240" width="60" height="60" fill="white"/>
<rect x="1500" y="120" width="60" height="60" fill="white"/>
<rect x="1560" y="240" width="60" height="60" fill="white"/>
<rect x="1620" y="240" width="60" height="60" fill="white"/>
<rect x="1620" y="180" width="60" height="60" fill="white"/>
<rect x="1680" y="240" width="60" height="60" fill="white"/>
<rect x="1740" y="240" width="60" height="60" fill="white"/>
<rect x="1740" y="180" width="60" height="60" fill="white"/>
<rect x="1860" y="240" width="60" height="60" fill="white"/>
</svg>
