<svg width="167" height="16" viewBox="0 0 167 16" fill="none" xmlns="http://www.w3.org/2000/svg">
<path d="M13.849 5.18683C13.8331 4.67607 13.6547 4.25241 13.3139 3.91586C12.969 3.57931 12.5568 3.41302 12.0772 3.41302H4.53837C4.04291 3.41302 3.6188 3.58723 3.26604 3.93962C2.91724 4.28805 2.73887 4.70379 2.73887 5.18683C2.73887 5.66988 2.90931 6.10146 3.25415 6.44593C3.59898 6.7904 4.01517 6.96065 4.51458 6.96065H12.0732C12.6876 6.96065 13.2663 7.07944 13.8133 7.32096C14.3603 7.56248 14.8399 7.88716 15.2481 8.29498C15.6564 8.7028 15.9814 9.18585 16.2232 9.74016C16.465 10.2945 16.5839 10.8765 16.5839 11.4902C16.5839 12.1039 16.4689 12.682 16.2351 13.2284C16.0012 13.7748 15.6802 14.2539 15.2719 14.6617C14.8636 15.0695 14.384 15.3942 13.8371 15.6357C13.2901 15.8773 12.6995 15.996 12.0732 15.996H4.53837C3.924 15.996 3.34135 15.8812 2.78644 15.6476C2.23153 15.414 1.74796 15.0933 1.33971 14.6855C0.931455 14.2777 0.606437 13.7986 0.364655 13.2522C0.122873 12.7058 0.00396364 12.1198 0.00396364 11.4902H2.74284C2.74284 11.7238 2.78644 11.9456 2.87364 12.1594C2.96084 12.3692 3.08371 12.5593 3.24622 12.7295C3.40873 12.8958 3.59502 13.0304 3.81698 13.1255C4.03498 13.2205 4.26884 13.268 4.51855 13.268H12.0534C12.5647 13.268 12.9928 13.0977 13.3337 12.7533C13.6746 12.4088 13.849 11.9852 13.849 11.4744C13.849 10.9636 13.6746 10.5598 13.3218 10.2153C12.973 9.87082 12.5568 9.70057 12.0732 9.70057H4.51458C3.94382 9.70057 3.38098 9.5897 2.83004 9.37194C2.27513 9.15417 1.79156 8.84138 1.38331 8.4296L1.27233 8.31873C0.879928 7.92279 0.5668 7.45954 0.340873 6.9171C0.114946 6.37862 0 5.80054 0 5.18683C0 4.57312 0.118909 3.99505 0.360691 3.44865C0.602473 2.90225 0.927491 2.42316 1.33575 2.01534C1.744 1.60752 2.2236 1.28285 2.77058 1.04133C3.31757 0.799802 3.90022 0.68102 4.51062 0.68102H12.0693C12.6836 0.68102 13.2623 0.799802 13.8093 1.02945C14.3563 1.26305 14.8359 1.58377 15.2442 1.99159C15.6524 2.39941 15.9774 2.87849 16.2192 3.42489C16.461 3.97129 16.5799 4.56125 16.5799 5.18683H13.841H13.849Z" fill="black"/>
<path d="M18.7797 0H21.5186V2.12225H18.7797V0ZM18.7797 4.02673H21.5186V15.9525H18.7797V4.02673Z" fill="black"/>
<path d="M24.2535 0H26.9924V2.12225H24.2535V0ZM24.2535 4.02673H26.9924V15.9525H24.2535V4.02673Z" fill="black"/>
<path d="M35.863 8.16432C35.863 7.11507 36.0691 6.12126 36.4893 5.18683C36.9054 4.25241 37.4683 3.44073 38.1738 2.74783C38.8793 2.05494 39.7077 1.50854 40.6511 1.10468C41.5944 0.704776 42.5893 0.502846 43.6397 0.502846H47.0365C48.2494 0.502846 49.3592 0.752289 50.366 1.24722C51.3727 1.74214 52.213 2.35585 52.8868 3.08439L51.0675 4.96511C50.8059 4.67211 50.5047 4.41871 50.1678 4.20094C49.8309 3.98317 49.4821 3.80104 49.1174 3.65454C48.7528 3.50804 48.3881 3.39718 48.0234 3.31403C47.6588 3.23484 47.3298 3.19525 47.0365 3.19525H43.6198C43.0372 3.19525 42.4426 3.31007 41.8441 3.53576C41.2456 3.76145 40.7026 4.09404 40.2111 4.52957C39.7196 4.96907 39.3233 5.49963 39.0181 6.12918C38.7129 6.75476 38.5583 7.4635 38.5583 8.25142C38.5583 8.89285 38.6811 9.51844 38.9309 10.1242C39.1806 10.73 39.5294 11.2685 39.9812 11.7436C40.4331 12.2188 40.9721 12.5989 41.5905 12.88C42.2088 13.1611 42.8945 13.3076 43.6397 13.3076H47.0563C47.8451 13.3076 48.5863 13.1373 49.2799 12.7929C49.9736 12.4484 50.576 12.0327 51.0873 11.5338L52.9066 13.4145C52.5856 13.7629 52.209 14.0916 51.777 14.4004C51.345 14.7053 50.8812 14.9785 50.3858 15.22C49.8903 15.4615 49.3592 15.6516 48.7964 15.7902C48.2335 15.9287 47.6588 16 47.0761 16H43.7031C42.5933 16 41.5588 15.7941 40.6035 15.3863C39.6483 14.9785 38.8199 14.4202 38.1183 13.7115C37.4167 13.0027 36.8658 12.1752 36.4655 11.2289C36.0651 10.2826 35.863 9.26107 35.863 8.16432Z" fill="black"/>
<path d="M65.4159 0.502846C66.4821 0.502846 67.4849 0.708735 68.4283 1.11656C69.3716 1.52438 70.1921 2.07869 70.8936 2.77951C71.5952 3.48033 72.1501 4.29993 72.5584 5.24227C72.9666 6.18461 73.1727 7.18634 73.1727 8.25142C73.1727 9.31651 72.9666 10.3182 72.5584 11.2606C72.1501 12.2029 71.5952 13.0225 70.8936 13.7233C70.1921 14.4242 69.3716 14.9785 68.4283 15.3863C67.4849 15.7941 66.4821 16 65.4159 16H61.8883C60.822 16 59.8192 15.7941 58.8759 15.3863C57.9325 14.9785 57.1121 14.4242 56.4105 13.7233C55.7089 13.0225 55.154 12.2029 54.7458 11.2606C54.3375 10.3182 54.1314 9.31651 54.1314 8.25142C54.1314 7.18634 54.3375 6.18461 54.7458 5.24227C55.154 4.29993 55.7089 3.48033 56.4105 2.77951C57.1121 2.07869 57.9325 1.52438 58.8759 1.11656C59.8192 0.708735 60.822 0.502846 61.8883 0.502846H65.4159ZM65.4159 13.3036C66.1175 13.3036 66.7754 13.173 67.3858 12.9077C68.0002 12.6464 68.5353 12.2821 68.9951 11.8228C69.4548 11.3635 69.8155 10.829 70.0811 10.2153C70.3467 9.60158 70.4775 8.94432 70.4775 8.24746C70.4775 7.55061 70.3467 6.88938 70.0811 6.27963C69.8195 5.66593 69.4548 5.1314 68.9951 4.67211C68.5353 4.21282 67.9962 3.85251 67.3858 3.58723C66.7715 3.32591 66.1135 3.19129 65.4159 3.19129H61.8883C61.1867 3.19129 60.5287 3.32195 59.9183 3.58723C59.304 3.84855 58.7689 4.21282 58.3091 4.67211C57.8493 5.1314 57.4886 5.66593 57.223 6.27963C56.9614 6.89334 56.8267 7.55061 56.8267 8.24746C56.8267 8.94432 56.9575 9.60554 57.223 10.2153C57.4846 10.829 57.8493 11.3635 58.3091 11.8228C58.7689 12.2821 59.304 12.6424 59.9183 12.9077C60.5327 13.169 61.1907 13.3036 61.8883 13.3036H65.4159Z" fill="black"/>
<path d="M75.5152 15.996V0.67706H77.7943L88.5517 11.6169V0.67706H91.2905V15.996H89.0114L78.2541 5.05617V15.996H75.5152Z" fill="black"/>
<path d="M93.958 8.16432C93.958 7.11507 94.1642 6.12126 94.5843 5.18683C95.0005 4.25241 95.5633 3.44073 96.2689 2.74783C96.9744 2.05494 97.8028 1.50854 98.7461 1.10468C99.6895 0.704776 100.684 0.502846 101.735 0.502846H105.132C106.344 0.502846 107.454 0.752289 108.461 1.24722C109.468 1.74214 110.308 2.35585 110.982 3.08439L109.163 4.96511C108.901 4.67211 108.6 4.41871 108.263 4.20094C107.926 3.98317 107.577 3.80104 107.212 3.65454C106.848 3.50804 106.483 3.39718 106.118 3.31403C105.754 3.23484 105.425 3.19525 105.132 3.19525H101.715C101.132 3.19525 100.538 3.31007 99.9392 3.53576C99.3407 3.76145 98.7977 4.09404 98.3062 4.52957C97.8147 4.96907 97.4183 5.49963 97.1131 6.12918C96.8079 6.75476 96.6533 7.4635 96.6533 8.25142C96.6533 8.89285 96.7762 9.51844 97.0259 10.1242C97.2756 10.73 97.6244 11.2685 98.0763 11.7436C98.5281 12.2188 99.0672 12.5989 99.6855 12.88C100.304 13.1611 100.99 13.3076 101.735 13.3076H105.151C105.94 13.3076 106.681 13.1373 107.375 12.7929C108.069 12.4484 108.671 12.0327 109.182 11.5338L111.002 13.4145C110.681 13.7629 110.304 14.0916 109.872 14.4004C109.44 14.7053 108.976 14.9785 108.481 15.22C107.985 15.4615 107.454 15.6516 106.891 15.7902C106.329 15.9287 105.754 16 105.171 16H101.798C100.688 16 99.6538 15.7941 98.6986 15.3863C97.7433 14.9785 96.9149 14.4202 96.2134 13.7115C95.5118 13.0027 94.9609 12.1752 94.5605 11.2289C94.1602 10.2826 93.958 9.26107 93.958 8.16432Z" fill="black"/>
<path d="M116.872 6.96065H128.418V9.69661H116.872V13.264H129.686V16H114.133V0.67706H129.686V3.41302H116.872V6.96065Z" fill="black"/>
<path d="M143.666 0.67706C144.38 0.67706 145.053 0.81168 145.68 1.08092C146.306 1.35016 146.857 1.72235 147.324 2.19748C147.792 2.67261 148.161 3.22296 148.43 3.84855C148.7 4.47414 148.835 5.14724 148.835 5.85993C148.835 6.57263 148.7 7.22197 148.43 7.83964C148.161 8.46127 147.788 9.00371 147.313 9.47092C146.837 9.93813 146.29 10.3064 145.672 10.5756C145.049 10.8448 144.391 10.9795 143.69 10.9795H135.497V15.9921H132.758V0.67706H143.666ZM135.493 8.25142H143.666C144.003 8.25142 144.316 8.18807 144.609 8.06533C144.903 7.94259 145.156 7.76837 145.374 7.55061C145.592 7.33284 145.767 7.07548 145.902 6.78644C146.032 6.49344 146.1 6.18857 146.1 5.86785C146.1 5.54714 146.032 5.21455 145.902 4.91759C145.771 4.62064 145.596 4.35932 145.374 4.14155C145.152 3.92378 144.899 3.74957 144.609 3.61495C144.316 3.48429 144.003 3.41698 143.666 3.41698H135.493V8.25142Z" fill="black"/>
<path d="M157.337 15.996V3.41302H150.416V0.67706H167V3.41302H160.079V15.996H157.337Z" fill="black"/>
</svg>
